<svg width="19" height="23" viewBox="0 0 19 23" fill="none" xmlns="http://www.w3.org/2000/svg">
<path d="M10.3864 2.51028L15.8571 8.00835V20.7234H2.26529V2.51028H10.3864ZM11.3265 0.233643H2.26529C1.01938 0.233643 0 1.25813 0 2.51028V20.7234C0 21.9755 1.01938 23 2.26529 23H15.8571C17.103 23 18.1223 21.9755 18.1223 20.7234V7.06355L11.3265 0.233643ZM9.06117 13.8935C10.3071 13.8935 11.3265 12.869 11.3265 11.6168C11.3265 10.3647 10.3071 9.34019 9.06117 9.34019C7.81526 9.34019 6.79588 10.3647 6.79588 11.6168C6.79588 12.869 7.81526 13.8935 9.06117 13.8935ZM13.5918 17.7979C13.5918 16.8758 13.0481 16.0563 12.2099 15.692C11.2472 15.2708 10.1825 15.0318 9.06117 15.0318C7.93985 15.0318 6.87516 15.2708 5.91242 15.692C5.07426 16.0563 4.53059 16.8758 4.53059 17.7979V18.4467H13.5918V17.7979Z" fill="white"/>
</svg>
