<svg width="23" height="21" viewBox="0 0 23 21" fill="none" xmlns="http://www.w3.org/2000/svg">
<path d="M5.33589 21H0.617617V7.18191H5.33589V21ZM2.97422 5.29699C1.46546 5.29699 0.241699 4.1605 0.241699 2.78839C0.241699 2.12931 0.529589 1.49723 1.04203 1.0312C1.55448 0.565161 2.24951 0.303345 2.97422 0.303345C3.69892 0.303345 4.39395 0.565161 4.9064 1.0312C5.41884 1.49723 5.70673 2.12931 5.70673 2.78839C5.70673 4.1605 4.48246 5.29699 2.97422 5.29699ZM22.9949 21H18.2868V14.2735C18.2868 12.6704 18.2512 10.6145 15.8337 10.6145C13.3805 10.6145 13.0046 12.3562 13.0046 14.158V21H8.29142V7.18191H12.8167V9.06683H12.8827C13.5126 7.98116 15.0513 6.83542 17.347 6.83542C22.1222 6.83542 23 9.69514 23 13.4095V21H22.9949Z" fill="white"/>
</svg>
