<svg width="25" height="23" viewBox="0 0 25 23" fill="none" xmlns="http://www.w3.org/2000/svg">
<path d="M16.4677 7.04839C15.7659 2.90746 14.1107 0 12.1845 0C10.2584 0 8.60318 2.90746 7.90143 7.04839H16.4677ZM7.53845 11.5C7.53845 12.5294 7.59653 13.5171 7.69816 14.4677H16.6661C16.7677 13.5171 16.8258 12.5294 16.8258 11.5C16.8258 10.4706 16.7677 9.48286 16.6661 8.53226H7.69816C7.59653 9.48286 7.53845 10.4706 7.53845 11.5ZM23.2529 7.04839C21.8688 3.8998 19.0666 1.46532 15.6062 0.482258C16.7871 2.0496 17.6002 4.40988 18.0261 7.04839H23.2529ZM8.75805 0.482258C5.30252 1.46532 2.4955 3.8998 1.11619 7.04839H6.34305C6.7641 4.40988 7.57717 2.0496 8.75805 0.482258ZM23.7708 8.53226H18.2196C18.3213 9.50605 18.3793 10.503 18.3793 11.5C18.3793 12.497 18.3213 13.494 18.2196 14.4677H23.7659C24.0321 13.5171 24.1821 12.5294 24.1821 11.5C24.1821 10.4706 24.0321 9.48286 23.7708 8.53226ZM5.98975 11.5C5.98975 10.503 6.04783 9.50605 6.14946 8.53226H0.598342C0.336999 9.48286 0.182129 10.4706 0.182129 11.5C0.182129 12.5294 0.336999 13.5171 0.598342 14.4677H6.14462C6.04783 13.494 5.98975 12.497 5.98975 11.5ZM7.90143 15.9516C8.60318 20.0925 10.2584 23 12.1845 23C14.1107 23 15.7659 20.0925 16.4677 15.9516H7.90143ZM15.611 22.5177C19.0666 21.5347 21.8736 19.1002 23.2577 15.9516H18.0309C17.605 18.5901 16.7919 20.9504 15.611 22.5177ZM1.11619 15.9516C2.50034 19.1002 5.30252 21.5347 8.76289 22.5177C7.58201 20.9504 6.76894 18.5901 6.34305 15.9516H1.11619Z" fill="white"/>
</svg>
