<svg id="Laag_2" data-name="Laag 2" xmlns="http://www.w3.org/2000/svg" viewBox="0 0 448.57 86"><defs><style>.cls-1{fill:#a6a9ac;}.cls-2{fill:#83c500;}</style></defs><path class="cls-1" d="M54.35,88.92v27.67H43.73V65.49H54.35v9.32a17,17,0,0,1,6.88-7.4,19.31,19.31,0,0,1,9.91-2.69q11.94,0,16.21,10,7.49-10,18.68-10,8.53,0,13.8,5.28t5.26,15.27v31.32H114.47v-28q0-14.12-11.57-14.12a13.9,13.9,0,0,0-9.43,3.51q-4,3.5-4.22,10.23v28.43H78.63v-28q0-7.31-2.56-10.71T68,74.42a13.78,13.78,0,0,0-9.58,3.7C55.71,80.58,54.35,84.19,54.35,88.92Z" transform="translate(-43.73 -33)"/><path class="cls-1" d="M278.35,88.92v27.67H267.73V65.49h10.62v9.32a17,17,0,0,1,6.88-7.4,19.31,19.31,0,0,1,9.91-2.69q11.94,0,16.21,10,7.48-10,18.68-10,8.54,0,13.8,5.28t5.26,15.27v31.32H338.47v-28q0-14.12-11.57-14.12a13.9,13.9,0,0,0-9.43,3.51q-4,3.5-4.22,10.23v28.43H302.63v-28q0-7.31-2.56-10.71T292,74.42a13.78,13.78,0,0,0-9.58,3.7C279.71,80.58,278.35,84.19,278.35,88.92Z" transform="translate(-43.73 -33)"/><path class="cls-1" d="M172.81,94.65V66.82H184v51.41H172.81v-9.38a19.53,19.53,0,0,1-7.46,7.44A20.38,20.38,0,0,1,155.08,119q-9,0-14.57-5.31T135,98.32V66.82h11.22V95q0,14.2,12.22,14.2a15,15,0,0,0,10.11-3.72Q172.81,101.8,172.81,94.65Z" transform="translate(-43.73 -33)"/><path class="cls-1" d="M204.4,117.59H194.12V45.29H204.4Z" transform="translate(-43.73 -33)"/><path class="cls-1" d="M241.65,110.06l.08,7.88c-18.17,1.3-20.66-2.72-20.66-2.72-3.16-3.4-2.76-9.39-2.76-14.69L218.44,75h-8.71V66.45h7V50.63H228.4V66.45H243V75H228.4v25.57c0,2.4-.28,7.3,1.11,8.72C229.51,109.26,229.6,110.72,241.65,110.06Z" transform="translate(-43.73 -33)"/><path class="cls-1" d="M257.44,117.2H247.15V66.8h10.29Z" transform="translate(-43.73 -33)"/><path class="cls-1" d="M492.27,117.2H482V66.8h10.29Z" transform="translate(-43.73 -33)"/><path class="cls-1" d="M410.26,95.8H369.34a11.37,11.37,0,0,0,5.2,8.84,18.73,18.73,0,0,0,11,3.36c6.54,0,14.2.12,15.91-7.21h8.81c-2.75,16.28-16.47,16.28-25.5,16.28a26.75,26.75,0,0,1-18.7-7q-7.69-7-7.7-18.9t7.85-18.86a26.91,26.91,0,0,1,18.5-7,27.42,27.42,0,0,1,18.11,6.19q7.45,6.18,7.45,17.06Zm-40.92-8.31h29.93q0-6.33-4.12-9.74A15.42,15.42,0,0,0,385,74.35a17.82,17.82,0,0,0-10.84,3.54A11.31,11.31,0,0,0,369.34,87.49Z" transform="translate(-43.73 -33)"/><path class="cls-1" d="M461.79,113.29c-6,4.45-8.8,5-15.68,5.39-5.85.32-14.54-3-19.39-7.87s-7.28-11.36-7.28-19.37,2.49-14.41,7.47-19.19a24.81,24.81,0,0,1,17.8-7.17q10.32,0,16.63,8.72V45.51h10.87V93.24S471.68,107.35,461.79,113.29ZM430.3,91.87a16.13,16.13,0,0,0,4.76,12.06,15.42,15.42,0,0,0,11.15,4.66,14.41,14.41,0,0,0,10.86-4.7,16.82,16.82,0,0,0,4.47-12.07,17.65,17.65,0,0,0-4.47-12.3,14.19,14.19,0,0,0-11-4.94A14.79,14.79,0,0,0,435,79.52,17.32,17.32,0,0,0,430.3,91.87Z" transform="translate(-43.73 -33)"/><circle class="cls-2" cx="208.12" cy="6.38" r="5.91"/><circle class="cls-2" cx="24.94" cy="52.35" r="5.91"/><circle class="cls-2" cx="442.65" cy="5.91" r="5.91"/></svg>