<svg width="58" height="35" viewBox="0 0 58 35" fill="none" xmlns="http://www.w3.org/2000/svg">
<path d="M10.6411 11.9834H13.4755L16.257 20.2755L19.0391 11.9834H21.8734L17.8768 23.9022H14.6285L10.6411 11.9834Z" fill="white"/>
<path d="M21.8734 23.9016V11.9834H26.0833C27.9651 11.9834 29.4968 12.6529 30.5644 13.7288C31.6326 14.8053 32.2189 16.2971 32.2189 17.9251C32.2189 18.9108 32.0088 19.8964 31.5624 20.7824C31.1159 21.6684 30.4685 22.4553 29.567 23.0074C28.6656 23.5589 27.5454 23.9022 26.1798 23.9022H21.8734V23.9016ZM24.5516 14.5877V21.3062H25.6717C27.0721 21.3062 28.0433 20.8184 28.6741 20.1577C29.2953 19.5071 29.567 18.6565 29.567 17.9334C29.567 17.1017 29.1908 16.2605 28.4994 15.6364C27.8075 15.0124 26.801 14.5877 25.541 14.5877H24.5516Z" fill="white"/>
<path d="M39.7789 21.7768H34.9508L34.2251 23.9022H31.3322L35.3896 11.9834H39.3845L43.4512 23.9022H40.5046L39.7789 21.7768ZM35.8372 19.1813H38.8826L37.3604 14.6963L35.8372 19.1813Z" fill="white"/>
<path d="M43.1556 23.9022V11.9834H46.5966C47.2924 11.9834 48.0312 12.0377 48.7092 12.2093C49.3866 12.3904 50.0118 12.6706 50.4607 13.1408C50.9096 13.6109 51.1909 14.2622 51.1909 15.1576C51.1909 15.7729 51.0411 16.2696 50.8034 16.6677C50.5657 17.0748 50.2575 17.3821 49.9325 17.6263C51.1381 18.1325 51.7277 19.0096 51.7277 20.4295C51.7277 21.5061 51.4022 22.247 50.8476 22.7537C50.2844 23.2693 49.51 23.5583 48.6036 23.7123C47.6971 23.8656 46.6764 23.9022 45.6287 23.9022H43.1556ZM45.8492 13.946V16.7132C46.8699 16.7132 47.5656 16.7043 48.0232 16.5321C48.4721 16.3604 48.657 16.0436 48.657 15.4012C48.657 14.7229 48.4543 14.3613 48.0054 14.1625C47.5565 13.9631 46.8704 13.9454 45.8934 13.9454H45.8492V13.946ZM45.8492 18.9465V21.9396C46.9669 21.9396 47.8119 21.9125 48.3751 21.7137C48.9382 21.5149 49.2287 21.1622 49.2287 20.4838C49.2287 19.8237 48.9647 19.4349 48.4457 19.2179C47.9267 19.0008 47.1701 18.9465 46.2108 18.9465H45.8492Z" fill="white"/>
<path d="M41.8889 26.4751H21.9111V27.7836H41.8889V26.4751Z" fill="white"/>
<path d="M41.8889 8.15527H21.9111V10.1181H41.8889V8.15527Z" fill="white"/>
</svg>
