<svg id="Laag_1" data-name="Laag 1" xmlns="http://www.w3.org/2000/svg" viewBox="0 0 109.68 125"><defs><style>.cls-1{fill:#484747;}.cls-2{fill:#0075bd;}.cls-2,.cls-3{fill-rule:evenodd;}.cls-3{fill:#0085cb;}.cls-4{fill:#0084bf;}.cls-5{fill:#f0f0f0;}.cls-6{fill:#fff;}</style></defs><polyline class="cls-1" points="0 0 109.68 0 99.88 112.13 55.15 125 9.19 112.13"/><polyline class="cls-1" points="55.18 10.85 55.18 114.14 92.13 103.51 100.23 10.85"/><polyline class="cls-1" points="71.7 64.34 55.18 64.34 55.18 85.48 69.86 82.72"/><polyline class="cls-1" points="19.61 23.9 21.45 37.4 54.54 37.38 22.06 51.47 23.9 64.34 55.18 64.34 55.18 23.9"/><polyline class="cls-1" points="39.22 82.12 37.99 71.7 24.52 71.7 26.35 93.14 55.15 101.11 55.18 101.09 55.18 85.48"/><polyline class="cls-1" points="86.41 50.33 56.89 50.33 88.93 37.22 88.93 23.9 55.18 23.9 55.18 64.34 71.7 64.34 69.85 82.72 55.18 85.48 55.18 101.09 82.72 92.53"/><polyline class="cls-2" points="0 0 109.68 0 99.88 112.13 55.15 125 9.19 112.13"/><polyline class="cls-3" points="55.18 10.85 55.18 114.14 92.13 103.51 100.23 10.85"/><polyline class="cls-4" points="71.7 64.34 55.18 64.34 55.18 85.48 69.86 82.72"/><polyline class="cls-5" points="19.61 23.9 21.45 37.4 54.54 37.38 22.06 51.47 23.9 64.34 55.18 64.34 55.18 23.9"/><polyline class="cls-5" points="39.22 82.12 37.99 71.7 24.52 71.7 26.35 93.14 55.15 101.11 55.18 101.09 55.18 85.48"/><polyline class="cls-6" points="86.41 50.33 56.89 50.33 88.93 37.22 88.93 23.9 55.18 23.9 55.18 64.34 71.7 64.34 69.85 82.72 55.18 85.48 55.18 101.09 82.72 92.53"/></svg>