<svg id="svg17" xmlns="http://www.w3.org/2000/svg" xmlns:xlink="http://www.w3.org/1999/xlink" viewBox="0 0 102.97 33.4"><defs><style>.cls-1{fill:#fff;}.cls-1,.cls-2{fill-rule:evenodd;}.cls-2{fill:url(#Naamloos_verloop);}</style><linearGradient id="Naamloos_verloop" x1="680.4" y1="6957.21" x2="680.4" y2="6894.17" gradientTransform="translate(-335.24 -3638.88) scale(0.53)" gradientUnits="userSpaceOnUse"><stop offset="0.18" stop-color="#0052cc"/><stop offset="1" stop-color="#2684ff"/></linearGradient></defs><g id="g841"><path id="path11" class="cls-1" d="M60.24,21.5v2.37h-6V39.66H51.74V23.87H46.63V21.5Zm1.21,4.33h2.32v2.44a4.57,4.57,0,0,1,4.89-2.63V28c-3-.31-4.89.61-4.89,3.54v8.17H61.45ZM77,39.93c-5.17,0-7.43-3-7.43-7.22s2.32-7.16,6.52-7.16,6,3,6,7.16v1.08H72c.33,2.34,1.86,3.87,5.12,3.87a12.56,12.56,0,0,0,4.2-.75v2.2A10,10,0,0,1,77,39.93ZM72,31.77H79.7c-.14-2.57-1.31-4-3.68-4s-3.79,1.62-4,4Zm16.65,8c-2.27,0-3.71-1.08-3.71-3.62V20.06H87.3V35.84c0,1.26.83,1.69,1.85,1.69.23,0,.47,0,.69,0v2.13A5.45,5.45,0,0,1,88.63,39.74Zm7.21,0c-2.27,0-3.71-1.08-3.71-3.62V20.06h2.38V35.84c0,1.26.83,1.69,1.86,1.69q.34,0,.69,0v2.13A5.54,5.54,0,0,1,95.84,39.74Zm2.54-7c0-4.15,2.43-7.16,6.58-7.16s6.52,3,6.52,7.16-2.4,7.22-6.52,7.22S98.38,36.86,98.38,32.72Zm2.32,0c0,2.62,1.3,5,4.26,5s4.2-2.38,4.2-5-1.25-4.95-4.2-4.95-4.25,2.32-4.25,4.95Z" transform="translate(-8.52 -13.3)"/><g id="Layer_2-2" data-name="Layer 2-2"><path id="Layer_1-2" data-name="Layer 1-2" class="cls-2" d="M37.74,13.3H12.69a4.17,4.17,0,0,0-4.17,4.18h0v25a4.17,4.17,0,0,0,4.17,4.18H37.74a4.18,4.18,0,0,0,4.15-4.18v-25A4.18,4.18,0,0,0,37.74,13.3ZM23,38.6a2,2,0,0,1-2,2H14.87a2,2,0,0,1-2-2v-19a2,2,0,0,1,2-2H21a2,2,0,0,1,2,2h0Zm14.53-8.35a2,2,0,0,1-2,2H29.39a2,2,0,0,1-2-2h0V19.65a2,2,0,0,1,2-2h6.19a2,2,0,0,1,2,2Z" transform="translate(-8.52 -13.3)"/></g></g></svg>