<svg id="Laag_1" data-name="Laag 1" xmlns="http://www.w3.org/2000/svg" viewBox="0 0 109.77 124.56"><defs><style>.cls-1{fill:#e34e26;}.cls-2{fill:#ef662a;}.cls-3{fill:#fff;}.cls-4{fill:#ebebeb;}</style></defs><g id="Guides_to_delete" data-name="Guides to delete"><polygon class="cls-1" points="9.99 112.11 0 0 109.77 0 99.77 112.12 54.86 124.56 9.99 112.11"/><polygon class="cls-2" points="54.89 9.16 54.89 115.04 91.2 104.98 99.75 9.16 54.89 9.16"/><polygon class="cls-3" points="20.45 22.91 24.16 64.5 71.81 64.5 70.21 82.33 54.87 86.48 39.55 82.33 38.53 70.88 24.73 70.88 26.7 92.96 54.87 100.78 83.06 92.96 86.84 50.75 36.73 50.75 35.47 36.67 88.05 36.67 88.09 36.67 89.32 22.91 20.45 22.91"/><polygon class="cls-4" points="54.89 22.91 20.45 22.91 24.16 64.5 54.89 64.5 54.89 50.75 36.73 50.75 35.47 36.67 54.89 36.67 54.89 22.91"/><polygon class="cls-4" points="54.89 86.47 54.87 86.48 39.55 82.33 38.53 70.88 24.73 70.88 26.7 92.96 54.87 100.78 54.89 100.78 54.89 86.47"/></g></svg>