<svg id="Laag_1" data-name="Laag 1" xmlns="http://www.w3.org/2000/svg" viewBox="0 0 262.86 303.16"><defs><style>.cls-1{fill:#fff;}.cls-1,.cls-2,.cls-3,.cls-4{fill-rule:evenodd;}.cls-2{fill:#e24329;}.cls-3{fill:#fc6d26;}.cls-4{fill:#fca326;}</style></defs><g id="Page-1"><g id="Fill-1-_-Group-24" data-name="Fill-1-+-Group-24"><g id="Group-24"><path id="Fill-2" class="cls-1" d="M375.15,647.88c-15.29,0-24.78,12.14-24.78,31.7s9.49,31.7,24.78,31.7a26.48,26.48,0,0,0,15.43-4.71l.22-.15v-22h-22v-7.8h31v32.73a34.69,34.69,0,0,1-24.65,9.7c-20.52,0-33.78-15.51-33.78-39.5s13.26-39.5,33.78-39.5c10,0,18.43,3.65,24.43,10.55l-6,5c-4.53-5.14-10.73-7.74-18.44-7.74Zm173.1,70h-7L539,711.38l-.55.5c-.08.07-7.83,7-17.59,7s-17-6.56-17-15.59c0-13.07,11.29-15.81,20.75-15.81a64.28,64.28,0,0,1,14,1.68l.62.15v-1.58c0-7.12-4.44-10.72-13.21-10.72a38.92,38.92,0,0,0-16.24,3.79l-3.61-6.21C510.89,671.47,518,668,526,668c13.91,0,22.22,7.55,22.22,20.21Zm-19.2-23.48c-10.62,0-16.23,3.08-16.23,8.89,0,4.07,3.07,6.59,8,6.59a35.36,35.36,0,0,0,18.2-5.3l.23-.15V695.2l-.42-.07a65,65,0,0,0-9.78-.78ZM498.82,710v7.8h-30v-74h9V710Zm80.48,9.05a85,85,0,0,1-19-2.39V643.83h9v28.06l.78-.5a24.19,24.19,0,0,1,12-3.24,22.23,22.23,0,0,1,4.09.38c11.35,2.32,18.12,11.48,18.12,24.49,0,15.34-10.25,26.06-24.93,26.06Zm1-42.12a19.78,19.78,0,0,0-10.82,3.54l-.23.15v29.83l.43.06a66.2,66.2,0,0,0,9.62.75c9.38,0,15.93-7.52,15.93-18.27,0-10.21-5.44-16.06-14.93-16.06Zm-123.49-8.13v7.8h-15v22.9a10.52,10.52,0,0,0,10.5,10.5h4.5v7.8h-4.5a19.53,19.53,0,0,1-19.5-19.5v-54.5h9v25Zm-45-20h9v9h-9Zm0,20h9v49h-9Z" transform="translate(-341.37 -415.92)"/><g id="Group"><path id="Fill-4" class="cls-2" d="M472.42,609.23h0l38.64-118.92H433.78l38.64,118.92Z" transform="translate(-341.37 -415.92)"/><path id="Fill-6" class="cls-2" d="M367.36,415.58" transform="translate(-341.37 -415.92)"/><path id="Fill-8" class="cls-3" d="M472.42,609.23,433.78,490.31H379.63Z" transform="translate(-341.37 -415.92)"/><path id="Fill-10" class="cls-3" d="M367.36,415.58" transform="translate(-341.37 -415.92)"/><path id="Fill-12" class="cls-4" d="M379.63,490.31h0l-11.74,36.14a8,8,0,0,0,2.9,8.94l101.63,73.84Z" transform="translate(-341.37 -415.92)"/><path id="Fill-14" class="cls-4" d="M367.36,415.58" transform="translate(-341.37 -415.92)"/><path id="Fill-16" class="cls-2" d="M379.63,490.31h54.15l-23.27-71.62a4,4,0,0,0-7.61,0Z" transform="translate(-341.37 -415.92)"/><path id="Fill-18" class="cls-3" d="M472.42,609.23l38.64-118.92h54.16Z" transform="translate(-341.37 -415.92)"/><path id="Fill-20" class="cls-4" d="M565.22,490.31h0L577,526.45a8,8,0,0,1-2.91,8.94L472.42,609.23Z" transform="translate(-341.37 -415.92)"/><path id="Fill-22" class="cls-2" d="M565.22,490.31H511.06l23.28-71.62a4,4,0,0,1,7.6,0Z" transform="translate(-341.37 -415.92)"/></g></g></g></g></svg>