<svg id="Laag_1" data-name="Laag 1" xmlns="http://www.w3.org/2000/svg" viewBox="0 0 127.34 126.49"><defs><style>.cls-1,.cls-2{fill:#fff;}.cls-1{fill-rule:evenodd;}</style></defs><path class="cls-1" d="M64,1.51A42.55,42.55,0,0,0,50.55,84.43c2.13.39,2.91-.93,2.91-2.05s0-4.37-.06-7.92c-11.84,2.57-14.33-5-14.33-5-1.94-4.92-4.73-6.23-4.73-6.23-3.86-2.64.29-2.58.29-2.58,4.27.3,6.52,4.38,6.52,4.38,3.8,6.51,10,4.63,12.38,3.54a9.08,9.08,0,0,1,2.71-5.69c-9.45-1.08-19.39-4.72-19.39-21a16.44,16.44,0,0,1,4.39-11.42c-.45-1.07-1.9-5.4.41-11.26,0,0,3.57-1.14,11.7,4.37a40.14,40.14,0,0,1,21.31,0c8.12-5.51,11.68-4.37,11.68-4.37,2.32,5.86.86,10.19.42,11.26a16.44,16.44,0,0,1,4.38,11.42c0,16.34-10,19.94-19.43,21,1.53,1.32,2.89,3.91,2.89,7.88,0,5.7,0,10.28,0,11.68,0,1.13.77,2.46,2.92,2A42.55,42.55,0,0,0,64,1.51Z" transform="translate(-0.33 -1.51)"/><path class="cls-2" d="M24.85,108.3H14.15a.51.51,0,0,0-.5.5V114a.5.5,0,0,0,.5.5h4.18V121a12.66,12.66,0,0,1-3.53.32c-3.06,0-7.33-1.11-7.33-10.5s4.45-10.63,8.62-10.63a17,17,0,0,1,6.17.94.51.51,0,0,0,.6-.49l1.19-5.06a.49.49,0,0,0-.19-.39c-.4-.29-2.86-1.66-9.06-1.66-7.14,0-14.47,3-14.47,17.65S8.72,128,15.79,128a17.4,17.4,0,0,0,9.4-2.5.43.43,0,0,0,.17-.38V108.8a.5.5,0,0,0-.5-.5ZM79.51,94.81h-6a.5.5,0,0,0-.5.5h0V107H63.59V95.31a.5.5,0,0,0-.49-.5h-6a.5.5,0,0,0-.5.5h0v31.53a.51.51,0,0,0,.5.51h6a.51.51,0,0,0,.49-.51h0V113.36H73v13.48a.5.5,0,0,0,.5.51h6a.51.51,0,0,0,.49-.51h0V95.31A.49.49,0,0,0,79.51,94.81Zm-47.17.72a3.93,3.93,0,1,0,3.88,3.92A3.9,3.9,0,0,0,32.34,95.53Zm3,9.61h-6a.56.56,0,0,0-.52.55v20.86c0,.61.38.79.87.79h5.41c.6,0,.74-.29.74-.8v-20.9a.49.49,0,0,0-.49-.5Zm67.6,0h-6a.5.5,0,0,0-.49.51h0v15.46a6.77,6.77,0,0,1-3.68,1.11c-2.15,0-2.73-1-2.73-3.09V105.69a.5.5,0,0,0-.49-.51H83.46a.5.5,0,0,0-.5.51v14.5c0,6.27,3.5,7.8,8.3,7.8a14,14,0,0,0,7.13-2.18,12.47,12.47,0,0,0,.22,1.29.53.53,0,0,0,.44.27l3.86,0a.5.5,0,0,0,.5-.5h0V105.68a.5.5,0,0,0-.5-.5Zm16.34-.71a11.21,11.21,0,0,0-5.7,1.52V95.31a.5.5,0,0,0-.5-.5h-6a.5.5,0,0,0-.5.5h0v31.53a.5.5,0,0,0,.5.5h4.19a.5.5,0,0,0,.44-.26,10.39,10.39,0,0,0,.25-1.46A10.81,10.81,0,0,0,119,128c5.49,0,8.64-2.78,8.64-12.5s-5-11-8.43-11Zm-2.36,17.77a7.24,7.24,0,0,1-3.48-1v-10a8,8,0,0,1,3.09-1c2.16-.2,4.23.45,4.23,5.59,0,5.42-.93,6.49-3.84,6.4Zm-63.69-.12c-.26,0-.93.11-1.63.11-2.22,0-3-1-3-2.37V111h4.52a.5.5,0,0,0,.5-.5h0v-4.86a.5.5,0,0,0-.5-.5H48.59v-6c0-.23-.11-.34-.37-.34H42.05c-.24,0-.37.11-.37.34v6.17s-3.09.74-3.29.8a.49.49,0,0,0-.36.48v3.88a.49.49,0,0,0,.49.5h3.16v9.33c0,6.93,4.86,7.61,8.14,7.61a13.78,13.78,0,0,0,3.59-.59.46.46,0,0,0,.28-.45v-4.27a.5.5,0,0,0-.5-.5Z" transform="translate(-0.33 -1.51)"/></svg>