<?xml version="1.0" standalone="no"?>
<!DOCTYPE svg PUBLIC "-//W3C//DTD SVG 20010904//EN"
 "http://www.w3.org/TR/2001/REC-SVG-20010904/DTD/svg10.dtd">
<svg version="1.0" xmlns="http://www.w3.org/2000/svg"
 width="177.000000pt" height="43.000000pt" viewBox="0 0 177.000000 43.000000"
 preserveAspectRatio="xMidYMid meet">

<g transform="translate(0.000000,43.000000) scale(0.100000,-0.100000)"
fill="#000000" stroke="none">
<path d="M50 391 c-15 -28 -13 -284 2 -299 17 -17 299 -17 316 0 17 17 17 289
0 306 -8 8 -58 12 -160 12 -135 0 -148 -2 -158 -19z m138 -133 l-3 -93 -40 0
-40 0 -3 93 -3 92 46 0 46 0 -3 -92z m130 35 l-3 -58 -40 0 -40 0 -3 44 c-5
62 1 71 48 71 l41 0 -3 -57z"/>
</g>
</svg>
