<svg id="svg2" xmlns="http://www.w3.org/2000/svg" viewBox="0 0 111.49 126.73"><defs><style>.cls-1{fill:#d6ba32;}.cls-2{fill:#ffda3e;}.cls-3{fill:#ebebeb;}</style></defs><g id="layer1"><g id="g8487"><g id="g3768"><path id="path3770" class="cls-1" d="M18.72,15.83c12.46-.53,25,.15,37.42-.07,13.77-.43,27.52-.07,41.29,0,10.93,0,21.85-.05,32.78,0-3.44,37.91-6.9,75.82-10.09,113.76-14.64,4.16-29.29,8.26-43.93,12.4-1.87.77-3.8.05-5.6-.44q-20.87-6-41.76-11.81Q23.4,72.8,18.72,15.83m56,9.88c-.51,18.7-.07,37.4-.22,56.1.13,17.1-.25,34.22.2,51.32,12.3-2.9,24.44-6.47,36.57-10,3.05-32.46,6-64.92,8.58-97.42-15-.15-30.09,0-45.13,0M59,98.74c-7.22-2-14.36-4.25-21.69-5.81a79.72,79.72,0,0,0,.37,13c10.72,2.61,21.22,6,32,8.61.07-24.76,0-49.53,0-74.3-3.5-.08-7-.13-10.5-.21-.4,19.55,0,39.13-.19,58.69Z" transform="translate(-18.72 -15.55)"/></g><g id="g3796"><path id="path3798" class="cls-2" d="M74.69,25.71c15,0,30.09-.13,45.13,0-2.55,32.5-5.53,65-8.58,97.42-12.13,3.51-24.27,7.08-36.57,10-.45-17.1-.06-34.22-.2-51.32.15-18.7-.29-37.4.22-56.1m4.22,14.54q.07,24.15,0,48.31c7.35-1.18,14.67-2.55,22-3.88-.12,3.75-.27,7.5-.43,11.25-7.14,1.9-14.26,3.86-21.44,5.62-.11,4.33-.12,8.65-.08,13,9-2,17.93-4.58,26.91-6.84,1.12-.52,3.29-.46,3.19-2.22,1.08-11.58,1.76-23.2,2.81-34.8-7.44.61-14.8,1.86-22.24,2.37-.06-6.57-.08-13.15,0-19.72h23.47q.75-6.59,1.27-13.19c-11.82.05-23.66-.11-35.48.1Z" transform="translate(-18.72 -15.55)"/></g><path id="path3806" class="cls-3" d="M59,98.74c.17-19.56-.21-39.14.19-58.69,3.5.08,7,.13,10.5.21-.09,24.77,0,49.54,0,74.3-10.74-2.56-21.24-6-32-8.61a78.62,78.62,0,0,1-.36-13C44.68,94.49,51.82,96.76,59,98.74Z" transform="translate(-18.72 -15.55)"/></g></g></svg>