<?xml version="1.0" standalone="no"?>
<!DOCTYPE svg PUBLIC "-//W3C//DTD SVG 20010904//EN"
 "http://www.w3.org/TR/2001/REC-SVG-20010904/DTD/svg10.dtd">
<svg version="1.0" xmlns="http://www.w3.org/2000/svg"
 width="700.000000pt" height="394.000000pt" viewBox="0 0 700.000000 394.000000"
 preserveAspectRatio="xMidYMid meet">

<g transform="translate(0.000000,394.000000) scale(0.100000,-0.100000)"
fill="#000000" stroke="none">
<path d="M3380 3873 c-509 -55 -932 -384 -1099 -856 -95 -270 -99 -566 -11
-840 79 -246 247 -479 463 -639 94 -69 306 -177 365 -185 32 -4 44 -1 61 16
19 19 21 32 21 151 l0 130 -92 -6 c-116 -8 -192 7 -255 49 -39 26 -56 49 -97
126 -45 86 -90 142 -159 198 -34 27 -34 41 0 54 65 24 153 -24 229 -127 83
-112 162 -153 268 -139 87 12 112 27 119 72 4 21 20 59 36 85 l30 47 -37 6
c-370 62 -542 258 -542 617 0 137 37 255 104 335 23 27 24 33 14 69 -16 57
-13 181 6 248 l17 58 57 -4 c69 -6 147 -35 234 -88 l66 -39 73 16 c108 25 396
24 501 0 77 -18 78 -18 107 2 16 12 69 40 117 63 66 32 103 43 149 46 l61 4
13 -38 c19 -59 25 -192 12 -253 -11 -50 -10 -56 12 -85 78 -101 112 -225 103
-371 -20 -337 -182 -519 -514 -575 l-72 -12 24 -29 c52 -62 61 -114 58 -349
-2 -233 3 -266 46 -277 33 -8 108 17 216 72 586 299 855 982 630 1605 -135
377 -460 682 -849 795 -149 44 -346 63 -485 48z"/>
<path d="M1722 1199 c-162 -32 -272 -146 -324 -336 -28 -105 -31 -355 -5 -453
65 -244 214 -350 491 -350 104 0 193 19 272 56 l54 26 -2 286 -3 287 -190 0
-190 0 -3 -102 -3 -103 76 0 75 0 0 -109 c0 -124 3 -121 -100 -121 -84 0 -130
17 -176 64 -60 63 -79 131 -79 286 0 146 18 216 71 279 63 73 190 98 343 67
46 -9 86 -14 89 -11 8 8 41 144 42 171 0 27 -49 49 -142 64 -74 12 -234 11
-296 -1z"/>
<path d="M3255 1158 c-3 -7 -4 -251 -3 -543 l3 -530 115 0 115 0 3 233 2 232
155 0 155 0 0 -235 0 -235 115 0 115 0 0 545 0 546 -112 -3 -113 -3 -3 -202
-2 -203 -155 0 -155 0 -2 203 -3 202 -113 3 c-84 2 -114 -1 -117 -10z"/>
<path d="M4927 1163 c-4 -3 -7 -249 -7 -545 l0 -538 85 0 c81 0 85 1 91 24 l6
24 66 -31 c52 -24 83 -32 148 -35 192 -10 277 74 305 300 22 179 -11 338 -85
412 -71 72 -209 91 -326 47 -30 -12 -56 -21 -57 -21 -2 0 -3 83 -3 185 l0 185
-108 0 c-60 0 -112 -3 -115 -7z m412 -529 c37 -26 52 -77 52 -175 0 -145 -17
-190 -77 -205 -31 -8 -102 1 -138 17 l-26 12 0 169 0 169 33 14 c44 20 127 19
156 -1z"/>
<path d="M2406 1140 c-40 -13 -74 -48 -87 -91 -31 -103 80 -199 176 -153 102
48 99 196 -5 238 -45 18 -44 18 -84 6z"/>
<path d="M2757 1033 c-4 -3 -7 -53 -7 -110 0 -74 -4 -105 -12 -107 -7 -3 -33
-10 -58 -18 l-45 -13 -3 -77 -3 -78 60 0 59 0 4 -197 c4 -211 12 -249 61 -301
47 -51 94 -67 202 -67 64 0 108 5 123 13 21 12 23 19 20 90 l-3 77 -62 5 c-47
4 -68 11 -85 28 -22 22 -23 29 -23 185 l0 162 83 3 82 3 0 94 0 94 -82 3 -83
3 -3 108 -3 107 -108 0 c-59 0 -111 -3 -114 -7z"/>
<path d="M2325 808 c-3 -7 -4 -173 -3 -368 l3 -355 115 0 115 0 0 365 0 365
-113 3 c-84 2 -114 -1 -117 -10z"/>
<path d="M4134 806 c-3 -8 -4 -140 -2 -294 l3 -278 30 -59 c25 -49 39 -63 80
-84 44 -23 61 -26 160 -26 103 0 114 2 177 32 66 31 67 31 70 10 3 -21 9 -22
83 -22 l80 0 0 365 0 365 -115 0 -115 0 -3 -266 -2 -267 -40 -16 c-61 -24
-116 -21 -145 9 l-25 24 0 261 0 260 -115 0 c-91 0 -117 -3 -121 -14z"/>
</g>
</svg>
