<svg id="Laag_1" data-name="Laag 1" xmlns="http://www.w3.org/2000/svg" xmlns:xlink="http://www.w3.org/1999/xlink" viewBox="0 0 125.64 25.62"><defs><style>.cls-1{fill-rule:evenodd;fill:url(#Naamloos_verloop);}.cls-2{fill:#fff;}</style><linearGradient id="Naamloos_verloop" x1="-552.65" y1="510.43" x2="-552.65" y2="511.43" gradientTransform="matrix(25.21, 0, 0, -25.19, 13944.14, 12889.02)" gradientUnits="userSpaceOnUse"><stop offset="0" stop-color="#0052cc"/><stop offset="1" stop-color="#2684ff"/></linearGradient></defs><path class="cls-1" d="M22.45,5.11H3.23a3,3,0,0,0-3,3V27.29a3,3,0,0,0,.88,2.13,3,3,0,0,0,2.12.88H22.45a3,3,0,0,0,3-3V8.1A3,3,0,0,0,22.45,5.11ZM11.11,23.25a1,1,0,0,1-.3.71,1,1,0,0,1-.71.29H5.9a1,1,0,0,1-1-1V10.75a1,1,0,0,1,1-1h4.2a1,1,0,0,1,1,1Zm9.69-5.74a1,1,0,0,1-1,1h-4.2a1,1,0,0,1-1-1V10.75a1,1,0,0,1,1-1h4.2a1,1,0,0,1,1,1Z" transform="translate(-0.23 -5.11)"/><path class="cls-2" d="M52.47,7v4.87H46.7V30.3H41.13V11.82H35.36V7Z" transform="translate(-0.23 -5.11)"/><path class="cls-2" d="M59.55,30.3H54.41V12.12h5.14v3.49c1-2.46,2.54-3.91,5.32-3.74v5.39c-3.63-.29-5.32.6-5.32,3.51Z" transform="translate(-0.23 -5.11)"/><path class="cls-2" d="M93,30.44c-3.37,0-5.49-1.62-5.49-5.44V5.11h5.18V24.29c0,1.1.73,1.5,1.62,1.5a6.45,6.45,0,0,0,.76,0v4.48A8,8,0,0,1,93,30.44Z" transform="translate(-0.23 -5.11)"/><path class="cls-2" d="M103.79,30.44c-3.37,0-5.5-1.62-5.5-5.44V5.11h5.18V24.29c0,1.1.73,1.5,1.64,1.5a6.45,6.45,0,0,0,.76,0v4.48A7.29,7.29,0,0,1,103.79,30.44Z" transform="translate(-0.23 -5.11)"/><path class="cls-2" d="M108.36,21.2c0-5.61,3.23-9.45,8.79-9.45s8.73,3.83,8.73,9.45-3.2,9.53-8.73,9.53S108.36,26.78,108.36,21.2Zm5,0c0,2.74,1.15,4.91,3.75,4.91s3.69-2.17,3.69-4.91-1.11-4.84-3.69-4.84S113.4,18.46,113.4,21.2Z" transform="translate(-0.23 -5.11)"/><path class="cls-2" d="M71.82,22.85c1.44.15,2.89.24,4.34.25,3.94,0,7.27-1.06,7.27-4.87S80,11.74,75.89,11.74c-5.54,0-9.09,4-9.09,9.63,0,5.83,3.06,9.29,10,9.29a16.67,16.67,0,0,0,6-1.07V25.23A19.35,19.35,0,0,1,77,26.37C74.21,26.37,72.29,25.46,71.82,22.85Zm4-7.14a2.45,2.45,0,0,1,2.62,2.34c0,1.74-1.83,2.28-4,2.28a17.32,17.32,0,0,1-2.69-.21,6.06,6.06,0,0,1,.72-2.42,3.82,3.82,0,0,1,3.3-2Z" transform="translate(-0.23 -5.11)"/></svg>