<svg id="Laag_1" data-name="Laag 1" xmlns="http://www.w3.org/2000/svg" viewBox="0 0 332 376.49"><defs><style>.cls-1{fill:#0170ba;}.cls-2{fill:#29a9df;}.cls-3{fill:#cfcfcf;}.cls-4{fill:#fff;}</style></defs><g id="_0170baff" data-name="#0170baff"><path class="cls-1" d="M5,92.46q166,0,332,0c-6.09,68.83-12.09,137.66-18.43,206.47q-5.65,66-11.75,131.9c-23.62,6.26-47,13.39-70.61,19.67-21.68,6.37-43.54,12.13-65.23,18.44h-.65c-20.64-6.14-41.49-11.54-62.13-17.68-24.37-6.56-48.52-13.89-72.89-20.43-3.18-32.94-6-65.9-8.87-98.86C21.11,271.06,15.31,210.2,10.18,149.29,8.4,131,7.13,112.57,5,94.28V92.46m166.52,27.15c-.23,13.22.17,26.46-.23,39.67-38-.14-75.94,0-113.91,0,.65,12.83,2.37,25.58,4.14,38.3,35.32,1.31,70.69-.05,106,1-30.91,13.87-62.19,26.92-93.23,40.49-2.66,1.19-5.5,2.08-7.88,3.81C66.69,257,69,271,70,285.08c18.83-.07,37.65-.37,56.47-.4,15.09-.07,30.19.23,45.27-.1-.71,23.18.23,46.39-.48,69.56-10.15-1.5-20.18-3.76-30.29-5.56-8-1.74-16.15-2.64-24-4.93-1.11-11.12-1.89-22.28-2.88-33.42a25.21,25.21,0,0,0-7-.67c-11.4.07-22.82,0-34.23.14a638.28,638.28,0,0,0,6.31,64c11.25,2.94,22.52,5.81,33.75,8.87,17.21,4.68,34.63,8.58,51.86,13.18,2.05.44,4.12,1.2,6.25,1,1.14,14.08.26,28.24.47,42.36a85.43,85.43,0,0,0,11.72-2.81c32.62-8.86,65.2-17.88,97.81-26.83,1.62-12.82,2.38-25.73,3.66-38.59q5.08-58.61,10.36-117.2c4.17-44.69,7.78-89.43,12-134.12C261.79,119.59,216.65,119.47,171.52,119.61Z" transform="translate(-5 -92.45)"/></g><g id="_29a9dfff" data-name="#29a9dfff"><path class="cls-2" d="M171.52,119.61c45.13-.14,90.27,0,135.41-.06-4.19,44.69-7.8,89.43-12,134.12q-5.32,58.59-10.36,117.2c-1.28,12.86-2,25.77-3.66,38.59-32.61,9-65.19,18-97.81,26.83a85.43,85.43,0,0,1-11.72,2.81c-.21-14.12.67-28.28-.47-42.36l1.17-.23c30.34-7.62,60.48-16,90.75-23.89,3.82-42.94,8.07-85.86,10.76-128.88-25.74.13-51.5.06-77.24.16-3.75,0-7.5,0-11.23-.27,13.85-7.13,28.42-12.78,42.65-19.15,13.65-6.19,27.46-12,41.16-18.06,2.64-1.21,5.46-2.22,7.78-4,.91-3.35.86-6.86,1.22-10.29.79-10.88,2.19-21.7,2.71-32.59-36.46-.29-72.91,0-109.38-.23C171.69,146.07,171.29,132.83,171.52,119.61Z" transform="translate(-5 -92.45)"/><path class="cls-2" d="M171.7,284.58c17.61-.3,35.22.17,52.83.06-1,18-2.47,36-3.41,54-10.79,3.53-21.75,6.51-32.63,9.77-5.8,1.77-11.75,3.17-17.27,5.76C171.93,331,171,307.76,171.7,284.58Z" transform="translate(-5 -92.45)"/></g><g id="_cfcfcfff" data-name="#cfcfcfff"><path class="cls-3" d="M57.38,159.29c38,0,75.94-.15,113.91,0,.49,41.77-.13,83.54.41,125.3-15.08.33-30.18,0-45.27.1-18.82,0-37.64.33-56.47.4C69,271,66.69,257,66.43,242.9c2.38-1.73,5.22-2.62,7.88-3.81,31-13.57,62.32-26.62,93.23-40.49-35.33-1.06-70.7.3-106-1C59.75,184.87,58,172.12,57.38,159.29Z" transform="translate(-5 -92.45)"/><path class="cls-3" d="M72.77,309.7c11.41-.17,22.83-.07,34.23-.14a25.21,25.21,0,0,1,7,.67c1,11.14,1.77,22.3,2.88,33.42,7.86,2.29,16,3.19,24,4.93,10.11,1.8,20.14,4.06,30.29,5.56,1,14.11-.73,28.31.89,42.37l-1.17.23c-2.13.18-4.2-.58-6.25-1-17.23-4.6-34.65-8.5-51.86-13.18-11.23-3.06-22.5-5.93-33.75-8.87A638.28,638.28,0,0,1,72.77,309.7Z" transform="translate(-5 -92.45)"/></g><g id="_ffffffff" data-name="#ffffffff"><path class="cls-4" d="M171.29,159.28c36.47.19,72.92-.06,109.38.23-.52,10.89-1.92,21.71-2.71,32.59-.36,3.43-.31,6.94-1.22,10.29-2.32,1.81-5.14,2.82-7.78,4-13.7,6.07-27.51,11.87-41.16,18.06-14.23,6.37-28.8,12-42.65,19.15,3.73.27,7.48.29,11.23.27,25.74-.1,51.5,0,77.24-.16-2.69,43-6.94,85.94-10.76,128.88-30.27,7.89-60.41,16.27-90.75,23.89-1.62-14.06.08-28.26-.89-42.37,5.52-2.59,11.47-4,17.27-5.76,10.88-3.26,21.84-6.24,32.63-9.77.94-18,2.43-36,3.41-54-17.61.11-35.22-.36-52.83-.06C171.16,242.82,171.78,201.05,171.29,159.28Z" transform="translate(-5 -92.45)"/></g></svg>